# xmcd CD database file
#
# Track frame offsets:
#	150
#	16644
#	46500
#	67204
#	88214
#	103852
#	120150
#	145188
#	164791
#	190740
#	207093
#
# Disc length: 3039 seconds
#
# Revision: 0
# Processed by: cddbd v1.5.2PL0 Copyright (c) Steve Scherf et al.
# Submitted via: CDex 1.51
#
DISCID=910bdd0b
DTITLE=Guano Padano - Guano Padano
DYEAR=2009
DGENRE=Country
TTITLE0=Guano Padano - Guano Padano
TTITLE1=Guano Padano - A Country Concept
TTITLE2=Guano Padano - El Divino
TTITLE3=Guano Padano - Epiphany
TTITLE4=Guano Padano - Bull Buster
TTITLE5=Guano Padano - Ramblin' Man
TTITLE6=Guano Padano - Jack Frost
TTITLE7=Guano Padano - Del Rey
TTITLE8=Guano Padano - Danny Boy
TTITLE9=Guano Padano - Tromp Valley
TTITLE10=Guano Padano - El Divino (Bonus Track) (Alternate version)
EXTD=YEAR: 2009
EXTT0=
EXTT1=
EXTT2=
EXTT3=
EXTT4=
EXTT5=
EXTT6=
EXTT7=
EXTT8=
EXTT9=
EXTT10=
PLAYORDER=
